<svg width="632" height="632" viewBox="0 0 632 632" fill="none" xmlns="http://www.w3.org/2000/svg">
<path d="M293.333 0.466668C246.533 5.26667 216.133 13.6667 178 32.0667C88.9333 75 24.5333 159.133 6.13332 256.333C1.59999 280.333 0.666656 290.6 0.666656 315.533C0.666656 379.667 18.5333 438.733 53.6 491C76.4 525 100 549.133 133.467 573.267C208.8 627.667 306.4 645.267 397.333 621C452.667 606.333 507.6 573.267 546 531.8C599.067 474.467 628.267 403.933 630.933 327C632.4 280.467 625.733 241.4 608.667 199C591.333 155.667 569.467 123 535.2 89.4C517.467 72.2 508.933 65.2667 490 52.7333C448.4 25.2667 406.933 9.8 356 2.33334C346 0.866668 302.133 -0.466665 293.333 0.466668ZM358 12.3333C391.2 17 425.067 27.5333 453.333 42.0667C526.267 79.4 580.667 142.733 606.667 220.333C624 272.067 626.533 335 613.333 387.933C599.333 444.067 572.533 491.8 532.133 532.333C421.867 643.267 246 652.733 124 554.467C103.733 538.067 83.7333 517 67.8667 495C30 442.867 9.99999 381.133 9.99999 316.333C9.99999 289 12.9333 265.8 19.4667 240.333C33.4667 185.667 60.4 138.467 99.7333 99.4C124.667 74.6 150.267 56.2 180.933 41C217.333 23 242.4 16.2 295.333 9.8C304.667 8.73334 343.067 10.2 358 12.3333Z" fill="#9E3223"/>
<path d="M272.8 19.8C221.067 27.5333 176.533 46.4666 133.333 78.8666C119.6 89.2666 90.1333 118.6 79.7333 132.467C46.5333 176.333 27.7333 221.4 19.0667 277C16.5333 293.667 16.9333 340.6 19.8667 359C26.1333 399.533 39.7333 437.133 60.5333 471.533C92.1333 523.667 145.733 569.533 202 592.733C212.533 597 238.533 605.533 245.333 606.867C247.6 607.267 253.333 608.467 258.133 609.533C281.733 614.733 325.2 616.333 351.333 613.133C374.133 610.2 412.267 600.733 423.2 595.133C425.333 593.933 427.867 593 428.8 593C432 593 465.867 575.133 478.667 566.733C517.467 541 550.133 506.867 573.067 467.8C580.533 455.267 591.333 434.2 591.333 432.333C591.333 431.933 592.4 429.133 593.867 425.933C600.533 410.867 607.467 385.8 611.467 361.667C615.6 337 615.6 295.8 611.6 270.6C597.467 183.267 548.133 108.467 473.467 61.4C449.2 46.0667 415.067 31.8 386.667 25C352 16.7333 306.8 14.6 272.8 19.8ZM322 78.8666V135.4L316 139.267C312.667 141.267 310 143.533 310 144.333C310 145 312.667 149.533 316 154.333C319.333 159.133 322 164.067 322 165.267C322 166.467 317.733 171.8 312.4 176.867C296.8 192.067 298 197.8 298 103.667V23.8L302.4 23.2667C304.667 23 310.133 22.6 314.4 22.6L322 22.3333V78.8666ZM292.667 101.8C292.667 163.8 292.267 179.667 291.067 178.867C290.133 178.333 287.467 176.467 285.067 174.733C281.067 171.8 280.667 171.8 279.467 173.933C278.8 175.267 277.867 175.933 277.333 175.4C276.933 175 279.2 169.133 282.533 162.467C285.867 155.8 288.667 150.067 288.667 149.667C288.667 149.267 285.067 149 280.8 149C267.467 149 268.667 155.4 268.667 87V26.6L277.733 25.6667C282.667 25.1333 287.333 24.6 288 24.3333C292.667 22.7333 292.667 21.9333 292.667 101.8ZM364.667 27C392.133 31.6667 416.667 39.6667 442.667 52.3333C481.067 71.1333 510.533 93.6666 537.867 125.667C543.467 132.2 549.067 139.133 550.4 141C564.933 162.2 578.933 185.667 582.4 194.867C584.133 199.267 581.867 196.6 574.533 185.667C570.4 179.4 566.667 174.333 566.4 174.333C566 174.333 562.267 176.6 558.133 179.4C544 189.133 545.6 189.267 534.533 178.2C529.067 172.733 524.667 167.933 524.667 167.267C524.667 166.733 527.733 161.8 531.333 156.333C535.067 150.867 538 146.2 538 145.8C538 145.267 513.067 127.667 512.267 127.667C512 127.667 508.533 132.467 504.533 138.333C500.667 144.2 496.8 148.733 496 148.467C495.333 148.067 489.333 145.667 482.667 142.867C476.133 140.2 470.533 137.933 470.533 137.933C470.4 137.8 471.333 131.933 472.667 125C474 118.067 475.067 112.2 474.8 112.067C474.533 111.8 454.267 107.533 445.467 105.933C444.8 105.8 442.933 111.4 441.333 118.333L438.533 131H423.867H409.333L406.667 118.6C405.2 111.8 403.467 106.067 402.933 106.067C400.933 105.8 374.667 110.733 373.6 111.667C373.067 112.067 373.867 117.8 375.2 124.467C376.667 131 377.467 136.6 377.2 136.867C376.667 137.4 355.467 146.333 352.4 147.267C350.8 147.8 348.4 145.133 343.2 137.267L336.133 126.467L332.533 128.467C330.4 129.533 328.533 130.333 328 130.333C326.933 130.333 327.2 25.5333 328.4 24.4667C329.6 23 350.133 24.6 364.667 27ZM263.067 87.9333L262.667 148.333L255.733 148.733C251.2 149 247.067 148.333 244 146.867L239.333 144.733V88.8666C239.333 58.0666 239.733 33 240.4 32.8667C240.933 32.8667 245.6 31.8 250.667 30.3333C255.867 29 260.8 27.8 261.733 27.8C263.067 27.6667 263.333 40.0666 263.067 87.9333ZM234 86.3333C234 120.6 233.6 137 232.667 137C231.867 137 226.4 133 220.667 128.067L210 119.267L209.867 105.8C209.733 87.6666 209.733 69.5333 209.867 54.7333L210 42.6L219.733 39.2667C235.6 33.6667 234 28.2 234 86.3333ZM204.667 79.6666C204.667 97.9333 204.133 113 203.467 113C202.133 113 183.067 97.8 167.467 84.3333C164.133 81.4 159.467 77.6666 157.333 75.9333C153.333 73 153.333 73 156 70.8666C164.533 64.3333 198.8 46.3333 203.067 46.3333C204.267 46.3333 204.667 53.9333 204.667 79.6666ZM152.933 80.6C155.333 82.7333 158.133 85.1333 159.067 85.9333C160 86.8666 166.4 92.0666 173.067 97.5333C179.867 103 189.6 111 194.667 115.267L204 123.133L204.4 135.267L204.8 147.267L200.533 148.2C190.133 150.2 187.333 149.267 177.2 140.333C176.267 139.667 174.533 138.067 173.2 137C171.733 135.8 164 129.4 155.733 122.6C147.6 115.933 140.533 110.333 140.133 110.333C139.733 110.333 139.333 146.467 139.333 190.733C139.333 266.467 139.467 271.267 141.733 271.267C142.933 271.133 159.333 271.267 178 271.4L212 271.667L215.333 277.667L218.533 283.667L222.267 277.667C225.067 273.133 226.8 271.667 229.333 271.667C236.267 271.667 241.6 281 240.4 291.133L240 295H200.667C179.067 295 149.467 294.867 135.067 294.6L108.667 294.2V201.933V109.533L115.733 102.867C126.933 92.0666 144.933 77.4 147.6 77.1333C148 77 150.4 78.6 152.933 80.6ZM102 192.333V267.667H89.3333C78.4 267.667 76.4 267.4 75.7333 265.267C75.3333 264.067 69.0667 248.067 61.8667 229.8L48.8 196.467L55.2 183.533C63.6 166.867 78.9333 143.533 91.2 128.6C96.5333 122.2 101.067 117 101.467 117C101.733 117 102 150.867 102 192.333ZM153.067 129C154.533 130.067 156.267 131.667 157.2 132.333C158 133.133 162.4 136.867 166.933 140.6C171.6 144.467 174.8 147.8 174.267 148.2C173.733 148.467 168 148.867 161.467 148.867C154.933 149 149.467 149.133 149.2 149.267C148.667 149.8 164.533 180.733 180.667 211C193.2 234.6 207.333 262.333 207.333 263.533C207.333 264.6 197.333 265 176.667 265H146V194.2C146 127.4 146.133 123.4 148.267 125.133C149.6 126.2 151.733 127.933 153.067 129ZM222 137.8C227.867 142.733 232.4 147.133 232 147.667C231.2 148.867 218.533 149.4 213.867 148.333C210 147.533 210 147.267 210 138.2C210 133.133 210.267 129 210.667 129C211.067 129 216.267 133 222 137.8ZM408.267 212.2L407.467 258.2L400.533 264.867L393.6 271.533L370.133 252.067C357.2 241.267 342 228.6 336.4 223.8C330.667 219.133 326 214.867 326 214.333C326 210.6 342.267 194.867 355.067 186.067C369.2 176.467 394.4 166.733 405.867 166.467L409.067 166.333L408.267 212.2ZM461.333 171.533C481.067 177.667 504.4 194.067 518.267 211.4C525.867 221.133 535.733 239.533 539.867 251.933C543.067 261.533 544.667 273.667 544.667 287.667C544.667 308.333 547.867 306.333 513.733 306.333H484.267L469.867 297.533C460.267 291.667 455.333 287.933 455.333 286.333C455.333 280.067 450.667 270.067 445.2 264.733L439.467 259L440.133 214.333C440.533 189.8 441.067 169 441.333 168.067C441.867 166.6 450 167.933 461.333 171.533ZM280.533 185.933C283.867 188.733 288.533 192.467 290.667 194.467C294.933 198.333 317.733 217.133 375.467 264.733C395.733 281.4 411.867 295.533 411.333 296.067C410.8 296.733 387.2 296.733 358.8 296.2L307.333 295.267V288.067C307.333 279.533 310.133 273.4 314.533 272.2C316.4 271.8 321.733 271.667 326.533 271.933C331.333 272.067 335.333 271.933 335.333 271.533C335.333 270.6 329.867 265.933 292 235.133C275.2 221.4 260.8 209.4 260.133 208.467C259.467 207.4 261.467 202.333 266.133 193.933C270 186.867 273.467 181 273.733 181C274.133 181 277.2 183.267 280.533 185.933ZM591.333 217.667C598.8 238.333 599.067 237.667 585.067 240.2C578.8 241.4 573.333 242.067 573.067 241.8C572.8 241.533 571.333 237.933 569.867 233.667C568.4 229.4 566 223.533 564.533 220.6C563.067 217.8 562 215.267 562.267 215C566.267 211.4 584.133 201.267 584.933 202.067C585.467 202.6 588.4 209.667 591.333 217.667ZM50.4 217.933C51.3333 219.133 51.0667 219.667 49.4667 219.667C48 219.667 47.3333 218.6 47.4667 215.933C47.4667 213.933 47.8667 213.133 48.2667 214.333C48.6667 215.4 49.6 217.133 50.4 217.933ZM288.667 240.6L317.333 264.333L274.133 264.733C250.4 264.867 230.667 264.733 230.267 264.467C229.867 263.933 250.933 221.933 254.933 215.267C255.867 213.667 258.933 215.933 288.667 240.6ZM40.6667 244.333V267.667H34H27.2L28.1333 262.6C30.4 249.267 38.5333 221 40 221C40.4 221 40.6667 231.533 40.6667 244.333ZM52.1333 229.533C55.6 231.933 58.8 242.067 56.8 244.067C55.7333 245.133 54.1333 244.467 51.3333 241.667C48.2667 238.733 47.3333 236.6 47.3333 232.733C47.3333 227.133 48 226.733 52.1333 229.533ZM50.9333 251.133C51.2 251.8 50.5333 253.667 49.3333 255C47.4667 257.533 47.4667 257.4 47.3333 253.267C47.3333 249.133 49.7333 247.667 50.9333 251.133ZM61.3333 261.667C63.8667 264.2 66 266.6 66 267C66 267.4 62.4 267.667 58 267.667C53.6 267.667 50 267.4 50 267C50 266.2 55.8667 257 56.4 257C56.5333 257 58.8 259.133 61.3333 261.667ZM308.667 269.667C308.667 270.067 307.333 272.2 305.733 274.467C302.8 278.467 302.667 279.667 302.267 314.467L301.867 350.333L309.733 365.4C314.133 373.533 319.733 384.2 322.267 389C324.933 393.8 329.867 403 333.333 409.667C336.933 416.2 341.867 425.533 344.4 430.333C346.933 435.133 352.267 445.267 356.4 453C360.4 460.733 365.333 469.933 367.333 473.667C369.333 477.267 374.667 487.267 379.067 495.667C383.467 504.067 390.533 517.267 394.667 525C398.667 532.733 405.2 545 408.933 552.467C416.667 567.8 416.8 571.4 409.6 575.667C405.733 578.067 402.8 578.333 381.733 578.333H358.133L360.4 571.4C362.133 566.067 362.667 559.8 362.533 545.667C362.4 525.533 361.2 520.6 352 502.333C340.667 479.933 332 472.867 271.467 436.467C243.867 419.933 220.533 405.8 219.467 405.133C217.467 403.8 220.667 396.6 236.667 366.6L244.8 351.4L244.4 314.333C244 281.267 243.733 277 241.733 274.733C236.667 269.133 237.733 269 274 269C293.067 269 308.667 269.267 308.667 269.667ZM606.267 279.8C608.667 293.667 608.267 339.133 605.467 357C602.667 375.533 598 394.867 592.4 411C587.6 424.733 586 427.4 586 421.267C586 413 578.267 403.667 571.467 403.667C566.8 403.667 568.133 398.867 575.867 387.667L583.067 377.133L575.867 372.2L568.667 367.267V355.933C568.667 342.333 570.667 335.667 574.667 335.667C576.133 335.667 580.667 336.6 584.667 337.667C598.8 341.533 598.4 341.8 601.733 324.867C603.333 316.733 604.267 309.533 603.867 308.867C603.467 308.2 602 307.667 600.533 307.667C599.067 307.667 593.733 306.733 588.533 305.533L579.333 303.4V288.2V273H583.067C585.067 272.867 590.267 272.067 594.667 271.133C599.067 270.2 603.2 269.8 603.733 270.333C604.267 270.867 605.467 275 606.267 279.8ZM41.2 279.133C41.6 282.6 42 287.933 42 291.133V297H33.2H24.2667L25.2 286.067C25.7333 280.2 26.4 274.733 26.8 274.067C27.2 273.533 30.4 273 33.8667 273H40.2667L41.2 279.133ZM102 285V297H94.9333H88L84.1333 286.6C82 281 80 275.533 79.6 274.6C79.2 273.4 81.8667 273 90.5333 273H102V285ZM74.6667 280.067C77.0667 285.8 75.3333 286.6 70.1333 282.2C67.0667 279.667 67.0667 279.533 69.3333 277C72.1333 273.8 72 273.8 74.6667 280.067ZM52 277.8C56 280.467 56.1333 281.533 52.6667 285C48.6667 289 47.3333 288.2 47.3333 281.667C47.3333 278.333 47.6 275.667 48 275.667C48.4 275.667 50.2667 276.6 52 277.8ZM69.4667 289.8C73.4667 292.467 76.2667 295.267 75.8667 295.8C75.0667 297.133 51.3333 297.533 51.3333 296.333C51.3333 295.267 60.9333 285 61.7333 285C62.1333 285 65.6 287.133 69.4667 289.8ZM360 303.533C359.2 304.2 355.733 306.467 352 308.467C348.4 310.467 342.933 313.533 340 315.133C317.867 328.067 309.6 331.933 308.533 330.2C307.867 329.133 307.333 322.467 307.333 315.267V302.333H334.267C350.4 302.333 360.667 302.867 360 303.533ZM42 315.667V327.667H32.6667H23.3333V315.667V303.667H32.6667H42V315.667ZM56.2667 307C59.3333 308.867 62 310.867 62 311.4C62 311.933 59.0667 315.4 55.3333 319L48.6667 325.533V314.6C48.6667 308.6 49.0667 303.667 49.6 303.667C50 303.667 53.0667 305.133 56.2667 307ZM68 305C67.6 305.667 66.4 305.933 65.3333 305.4C62.5333 304.467 62.8 303.667 66.1333 303.667C67.6 303.667 68.5333 304.2 68 305ZM86.9333 311.667C88.5333 315.667 89.3333 319.133 88.6667 319.4C88.1333 319.667 84.2667 317.667 80.1333 315L72.6667 310.2L74.9333 307C76.5333 304.733 78.4 303.8 80.6667 304.067C83.3333 304.333 84.5333 305.8 86.9333 311.667ZM162.4 307.933C162.667 310.333 162.933 315.667 162.8 319.667L162.667 327H131.333H100L95.7333 316.333C93.3333 310.467 91.3333 305.267 91.3333 304.6C91.3333 304.067 107.2 303.667 126.533 303.667H161.733L162.4 307.933ZM184.533 315.267C177.867 321.8 171.733 327 170.8 327C169.867 327 169.2 323 168.933 315.267L168.533 303.667H182.533H196.533L184.533 315.267ZM240.4 315.267L240 327L226.4 327.4L212.8 327.8L211.467 322.733C210.667 319.933 209.2 314.6 208 311C206.933 307.267 206 304.2 206 303.933C206 303.8 213.867 303.667 223.333 303.667H240.8L240.4 315.267ZM203.6 318.333C204.667 322.6 205.333 326.467 204.933 327C203.733 328.2 183.333 327.667 183.333 326.467C183.333 325.133 199.2 310.333 200.667 310.333C201.067 310.333 202.4 313.933 203.6 318.333ZM562 358.333V403.667H495.333H428.667V358.333V313H495.333H562V358.333ZM77.0667 320.6C81.2 323.4 84.6667 326.067 84.6667 326.6C84.6667 327.133 78.6667 327.667 71.3333 327.667C64 327.667 58 327.267 58 326.867C58 325.133 66.2667 315.667 67.7333 315.667C68.6667 315.667 72.8 317.933 77.0667 320.6ZM410.4 317.667C413.067 318.733 416.8 319.667 418.667 319.667H422V361.533V403.533L417.867 406.467C414.267 409 412.667 409.267 405.6 408.6C378.267 406.067 343.2 385.933 327.467 363.933L324.8 360.067L365.067 337.933C387.2 325.667 405.333 315.667 405.467 315.667C405.6 315.667 407.867 316.6 410.4 317.667ZM42 345V357.133L34.4 356.733L26.6667 356.333L25.8667 351C25.3333 348.067 24.6667 342.867 24.2667 339.267L23.6 333H32.8H42V345ZM87.3333 334.067C87.3333 334.6 84.4 337.933 80.9333 341.4L74.4 347.8L64.2667 341C58.5333 337.267 54 333.933 54 333.533C54 333.267 61.4667 333 70.6667 333C79.8667 333 87.3333 333.533 87.3333 334.067ZM162.8 344.6L162.667 356.333L137.067 356.733L111.6 357L108.933 350.067C107.467 346.2 105.2 340.733 104.133 337.933L102 333H132.4H162.933L162.8 344.6ZM207.333 333.533C207.333 333.933 202.8 337.8 197.333 342.333C186.133 351.533 187.333 351.533 176.8 341.933C168.267 334.2 170.267 333 190.8 333C199.867 333 207.333 333.267 207.333 333.533ZM240.667 341C240.667 345.667 239.733 350.867 238.667 353C236.667 356.733 236.133 357 228.667 357C221.067 357 220.667 356.867 219.867 353.267C219.467 351.267 218 345.933 216.667 341.267L214.267 333H227.467H240.667V341ZM102.667 352.867L103.6 357H96.4C91.7333 357 87.8667 356.067 85.0667 354.333C82.6667 352.867 80.6667 351.4 80.6667 351.133C80.6667 350.733 84 347.133 88.1333 343L95.6 335.533L98.6667 342.067C100.4 345.667 102.133 350.467 102.667 352.867ZM60.6667 346.333C65.0667 349.267 68.6667 352.2 68.6667 352.733C68.6667 355.533 64.6667 357 57.0667 357H48.6667V348.2C48.6667 337.933 48.4 338.067 60.6667 346.333ZM213.067 352.6L214 357H204C198.667 357 193.867 356.467 193.333 355.8C192.933 355 196.4 351.4 200.933 347.533L209.2 340.6L210.8 344.467C211.6 346.6 212.667 350.333 213.067 352.6ZM180.667 355.133C180.667 356.467 179.067 357 175.467 357C170.8 357 170.267 356.6 169.733 353.267C169.467 351.267 169.467 348.6 169.733 347.267C170.133 345.267 170.933 345.533 175.467 349.133C178.267 351.4 180.667 354.067 180.667 355.133ZM42 374.467V386.467L37.0667 386.067C32 385.667 32 385.533 29.7333 377C26.1333 362.467 26.1333 362.333 34.6667 362.333H42V374.467ZM55.3333 367C52.8 369.533 50.2667 371.667 49.7333 371.667C49.2 371.667 48.6667 369.533 48.6667 367C48.6667 362.467 48.8 362.333 54.2667 362.333H59.8667L55.3333 367ZM97.3333 370.467L110.133 378.6L106.4 382.467L102.667 386.2L82.1333 386.333C63.7333 386.333 61.2 386.067 57.2 383.533C54.6667 382.067 52.6667 380.333 52.6667 379.933C52.6667 379.4 56.4 375.267 60.9333 370.733C69.2 362.333 69.3333 362.333 76.9333 362.333C84.1333 362.333 85.6 362.867 97.3333 370.467ZM107.733 365.267C108.8 369.4 108.133 369.667 103.467 366.867C98.2667 363.8 98.2667 362.333 103.2 362.333C106 362.333 107.2 363.133 107.733 365.267ZM134.533 363.933C134 364.867 132.133 367.533 130.4 369.933L127.2 374.067L134.533 379.667C138.667 382.6 142 385.4 142 385.667C142 386.067 137.867 386.333 132.667 386.333H123.333L121.2 381.267C118.933 376.2 114 363.267 114 362.733C114 362.467 118.8 362.333 124.8 362.333C132.933 362.333 135.2 362.733 134.533 363.933ZM163.333 366.333C163.333 368.467 162.933 370.333 162.4 370.333C161.2 370.333 150 363.667 150 363C150 362.6 153.067 362.333 156.667 362.333C163.2 362.333 163.333 362.467 163.333 366.333ZM203.867 374.067L217.067 385.667L202.8 386.067L188.667 386.467L179.333 381C174.133 377.933 170 375.133 170 374.6C170 374.067 172.8 371.133 176.267 368.067C185.867 359.533 188 360.067 203.867 374.067ZM216.8 365.933C217.6 368.067 218.533 371.667 218.933 374.2C219.733 378.6 219.6 378.733 217.067 376.867C212.933 373.933 202 364.067 202 363.133C202 362.733 205.067 362.333 208.667 362.333C214.8 362.333 215.467 362.733 216.8 365.933ZM232.667 363.533C232.667 366.067 226.933 374.467 225.867 373.4C225.333 372.867 224.4 370.067 224 367.267L223.067 362.333H227.867C230.533 362.333 232.667 362.867 232.667 363.533ZM115.333 385C115.333 385.667 114.667 386.333 113.867 386.333C113.2 386.333 112.933 385.667 113.333 385C113.733 384.2 114.4 383.667 114.8 383.667C115.067 383.667 115.333 384.2 115.333 385ZM42.4 393.4C43.4667 396.333 43.4667 417 42.2667 417C41.2 417 34 396.333 34 393.267C34 391.133 41.6 391.267 42.4 393.4ZM68.6667 399.133C74.9333 403.267 80.2667 406.867 80.6667 407.133C80.9333 407.533 74.4 414.6 66 423C57.6 431.4 50.5333 438.067 50.2667 437.667C50 437.4 49.4667 427 49.0667 414.467L48.2667 391.667H52.8C56 391.667 60.5333 393.8 68.6667 399.133ZM95.3333 392.6C95.3333 393.933 87.0667 402.333 85.7333 402.333C84.5333 402.333 71.3333 393 71.3333 392.2C71.3333 391.933 76.8 391.667 83.3333 391.667C90 391.667 95.3333 392.067 95.3333 392.6ZM120.8 398.333C122.133 401.667 125.6 410.6 128.533 418.2C131.6 425.8 134 432.733 134 433.667C134 434.6 124.667 429.133 113.333 421.4C101.867 413.667 92.6667 406.867 92.9333 406.2C93.2 405.667 96.2667 402.067 99.8667 398.333C106 391.933 106.667 391.533 112.4 391.933C118.267 392.333 118.533 392.6 120.8 398.333ZM156.8 396.467L163.333 401.267L163.467 412.067C163.467 418.067 163.733 426.333 164.133 430.6C164.533 434.867 164.267 439.267 163.467 440.733C162.533 442.6 162.4 443.8 163.333 444.333C164.133 444.867 164.667 453.933 164.667 467.4C164.667 481.133 164.133 489 163.467 488.2C162.667 487.533 158.4 477.4 153.867 465.667C149.333 453.933 144.667 441.667 143.333 438.333C129.867 403.8 126 393.533 126 392.733C126 392.067 131.467 391.667 138.133 391.667C150 391.667 150.533 391.8 156.8 396.467ZM212.533 395.133C209.2 398.467 208.933 398.467 204.933 396.467C197.867 392.867 198.533 391.667 207.6 391.667H216L212.533 395.133ZM178.933 412.6C182.8 415.267 186 418.067 186 418.867C186 420.333 172.267 433 170.8 433C170.4 433 170 427.267 170 420.333C170 413.4 170.4 407.667 170.933 407.667C171.333 407.667 174.933 409.8 178.933 412.6ZM576.533 413.8C578.4 416.2 579.333 419.267 579.333 423.133V429H498H416.667V423.133C416.667 419.267 417.6 416.2 419.467 413.8L422.133 410.333H498H573.867L576.533 413.8ZM89.6 413.133C90.4 413.933 92.2667 415.267 93.7333 416.2C97.8667 418.467 133.067 442.467 135.067 444.2C136.267 445.4 134.533 448.733 126.4 459.667C112.267 478.6 107.067 485 105.733 485C104.533 485 98.9333 481 69.6 459.267C62.8 454.333 56.9333 450.333 56.4 450.333C55.8667 450.333 55.0667 449 54.6667 447.533C53.8667 445.133 56.5333 441.8 70.1333 428.2C79.2 419.133 86.9333 411.667 87.3333 411.667C87.7333 411.667 88.8 412.333 89.6 413.133ZM196.4 425.933C199.067 428.333 199.067 428.467 192.133 441.4L185.067 454.467L178.533 448.333L172 442.333L181.867 433C187.333 427.8 192.267 423.667 192.8 423.667C193.333 423.667 194.933 424.733 196.4 425.933ZM357.467 430.2C361.733 432.2 367.6 434.733 370.4 435.533C373.067 436.467 375.333 437.933 375.333 438.867C375.333 439.8 374.267 445.667 372.8 451.933L370.4 463.267L383.2 466.2C390.267 467.667 397.333 469 398.933 469C401.867 469 402.267 467.8 405.733 449.667L406.8 444.333H421.333H436L436.4 509.667C436.533 545.533 436.4 576.867 436 579.267C435.333 583 434.267 583.8 426.267 587C412.667 592.6 394.8 598.067 379.067 601.667C364.533 605 343.333 608.067 342.4 607.133C342 606.867 344.133 603.133 347.067 598.733C350 594.467 353.333 589.133 354.4 586.867L356.533 582.733L381.6 582.467C412.133 582.2 415.067 581.267 419.333 570.6C420.933 566.467 420.667 565.533 414.267 552.6C410.533 545.133 404.533 533.533 400.933 527C394 514.2 371.733 472.2 362.933 455.667C360.133 450.2 355.733 441.933 353.2 437.4C349.2 430.2 347.733 426.333 349.067 426.333C349.333 426.333 353.067 428.067 357.467 430.2ZM220.667 443.8L237.067 456.067L227.467 460.867C191.2 478.733 170 519.4 176.533 558.333C177.333 562.333 178.267 567.667 178.8 570.2L179.733 574.867L170.933 569.933C161.6 564.6 140.667 550.6 140.667 549.533C140.667 549.133 152.533 526.333 167.2 498.6C181.733 471 195.6 444.6 198 439.933C200.4 435.4 202.8 431.667 203.333 431.667C204 431.667 211.733 437.133 220.667 443.8ZM466 501.4V567.133L454.667 573.533C448.533 577 442.8 579.533 442 579C440.533 578.067 440 438.067 441.6 436.6C442 436.067 447.733 435.667 454.267 435.667H466V501.4ZM495.333 491.4V547.267L483.333 555.533L471.333 563.8V499.8V435.667H483.333H495.333V491.4ZM524.667 478.2V520.733L513.867 530.867C508 536.467 502.533 541 501.867 541C501.2 541 500.667 519.933 500.667 488.333V435.667H512.667H524.667V478.2ZM554 460.467C554 483.8 553.867 485.533 551.067 489.4C546.267 496.467 532.133 513 531.067 513C530.533 513 530 495.533 530 474.333V435.667H542H554V460.467ZM582 436.333C582 440.2 562.267 474.6 560.533 473.667C559.2 472.733 558.8 441.267 560.133 437.8C560.8 436.067 563.067 435.667 571.467 435.667C577.2 435.667 582 435.933 582 436.333ZM151.333 476.6L160.933 501L156 509.667C152.8 515.4 150.667 518.067 149.6 517.4C147.2 515.933 119.467 496.067 115.6 492.867C111.467 489.667 111.6 489.667 123.333 474.333C127.333 469.133 132.933 461.8 135.733 458.067C138.533 454.467 141.067 451.667 141.333 451.933C141.6 452.2 146 463.267 151.333 476.6ZM182 460.467C182 461.4 173.733 476.333 172.533 477.533C171.867 478.333 171.333 473.4 171.333 465.133V451.4L176.667 455.667C179.6 457.933 182 460.067 182 460.467ZM78.4 474.067C85.2 479 92.1333 484.067 94 485.267C102.933 491.4 102.8 490.867 97.8667 497.533C95.4667 500.867 93.0667 503.667 92.6667 503.667C91.3333 503.667 83.8667 494.467 76.5333 483.667C68.4 471.933 64.2667 465 65.3333 465C65.7333 465 71.7333 469 78.4 474.067ZM129.067 510.733C139.067 518.2 147.333 524.867 147.333 525.533C147.2 529.533 144.267 531 133.067 532.333L121.333 533.8L116 529.133C113.067 526.467 107.6 521 103.733 517L96.8 509.667L102.133 502.6C105.467 498.333 108.133 495.933 109.067 496.467C110 497 118.933 503.4 129.067 510.733ZM138.667 542.333C136.533 546.467 135.6 546.467 130.933 542.6C128 540.067 130.133 538.333 136.4 538.333H140.8L138.667 542.333Z" fill="#9E3223"/>
</svg>
